<?xml version="1.0" encoding="UTF-8"?>
<svg width="414px" height="200px" viewBox="0 0 414 200" version="1.1" xmlns="http://www.w3.org/2000/svg" xmlns:xlink="http://www.w3.org/1999/xlink">
    <title>Group</title>
    <defs>
        <path d="M0,0 L414,0 L414,180 C414,191.045695 405.045695,200 394,200 L20,200 C8.954305,200 1.3527075e-15,191.045695 0,180 L0,0 L0,0 Z" id="path-1"></path>
    </defs>
    <g id="Page-1" stroke="none" stroke-width="1" fill="none" fill-rule="evenodd">
        <g id="Group">
            <mask id="mask-2" fill="white">
                <use xlink:href="#path-1"></use>
            </mask>
            <use id="Rectangle" fill="#FCDABE" xlink:href="#path-1"></use>
            <g id="Asset-1" mask="url(#mask-2)" fill-rule="nonzero">
                <g transform="translate(306.500000, 119.000000) scale(-1, 1) translate(-306.500000, -119.000000) translate(227.000000, 38.000000)">
                    <path d="M69.4900998,76.4022911 C69.4900998,76.4022911 68.3304493,92.9451182 65.2254939,92.0939311 C62.1205384,91.2427439 68.1491444,73.9132002 68.1491444,73.9132002 C68.1491444,73.9132002 56.4843217,60.9284575 50.5362957,59.1197936 C50.5362957,59.1197936 53.2243375,78.0785287 50.4259362,76.4937698 C47.6275349,74.9090108 43.9094712,55.3099251 43.9094712,55.3099251 C43.9094712,55.3099251 30.1154111,46.3920623 24.0438875,54.2121811 C17.9723639,62.0323 20.0148903,68.0324291 21.9943542,69.4960877 C23.973818,70.9597463 38.2592406,76.6401356 37.1249903,78.3198581 C35.99074,79.9995806 25.1746343,78.9785045 20.5132598,75.1215898 C20.5132598,75.1215898 20.371369,92.0529835 28.4258599,94.5150664 C36.4803508,96.9771492 40.863199,93.1969024 45.815362,94.8086693 C50.7675251,96.4204362 53.7340932,99.1508565 50.8008081,99.4462019 C47.867523,99.7415473 40.1099517,95.5256878 34.8705036,97.2062815 C29.6310556,98.8868752 25.6528588,99.6030225 32.235014,104.046272 C38.8171691,108.489521 52.1172392,112.892694 56.990574,108.453801 L57.6036823,107.89883 C57.4247568,108.109853 57.2186062,108.296456 56.990574,108.453801 C57.9969474,109.771094 58.4550269,114.264874 58.661732,117.652198 C58.661732,118.213267 58.6932632,119.005211 58.7799743,120.096857 L58.7799743,120.096857 C58.7974916,120.581258 58.8088779,120.976794 58.8158849,121.252101 C58.7195393,128.6096 52.8310723,138.95453 52.8310723,138.95453 L54.196552,140 C62.183601,130.416521 59.9720319,118.932028 59.9720319,118.932028 C59.0821491,110.177956 61.8682882,104.015779 61.8682882,104.015779 C61.8682882,104.015779 78.9144497,102.012832 76.8219988,88.8869505 C76.8219988,88.8869505 74.3354068,80.3367448 69.4900998,76.4022911 Z" id="Path" fill="#FCECDB"></path>
                    <path d="M125,74.4147724 C125,74.4147724 119.799385,87.6047383 107.865972,100.805296 C101.790076,107.526494 93.3965337,111.593636 90.126997,118.596392 C86.477937,126.41293 83.5738346,135 83.5738346,135 L62,102.289873 C62,102.289873 63.3657558,65.9053732 64.9137885,60.1056364 C66.8281361,52.9325333 69.7797889,48.3261072 72.2647425,37.3427067 C72.8362289,34.8183958 76.4535887,22.8623413 76.7556223,21.9708888 C76.8841848,21.5869464 77.9170871,21 79.2573066,21 C80.3333566,21 82.16317,22.0414989 82.6201831,24.1836327 C84.9492767,35.009043 82.1455587,42.1486064 82.1799008,42.4663518 C83.0014676,50.7859864 80.5314837,56.9617219 82.2635544,58.5963456 C82.3287162,58.6572468 82.4475924,58.6290028 82.6157803,58.5204398 C85.6185058,56.5874884 104.255657,29.3531744 106.551289,28.7653453 C108.973723,28.1430938 125,74.4147724 125,74.4147724 Z" id="Path" fill="#FFB27D"></path>
                    <path d="M122.466524,66.3803636 C119.860514,65.3745079 117.859251,65.0008015 117.859251,65.0008015 C103.933437,64.8846373 89,77.4339694 89,77.4339694 C93.0636986,85.268297 109.191776,87.69964 118.431665,84.8477647 C122.302228,78.5595912 125,73.7788504 125,73.7788504 C125,73.7788504 124.001117,70.8135124 122.466524,66.3803636 Z" id="Path" fill="#EFA26F"></path>
                    <path d="M84.2142467,80 C84.2142467,80 84.9670371,72.634229 80.6897316,64.505934 C79.3182355,61.9006433 77.9256689,56.863042 80.2290545,53.0760155 C82.53244,49.288989 83.3273714,42 83.3273714,42 C84.2209509,50.3189261 81.5344659,56.4941357 83.4183575,58.1286202 C83.4892309,58.1895162 83.618527,58.1612746 83.801457,58.0527208 C87.4198315,64.4150312 85.8462504,73.6059177 84.2142467,80 Z" id="Path" fill="#EFA26F"></path>
                    <path d="M88,140.517612 C88,140.517612 88,145.28613 87.1562474,162 L35,162 C47.3929959,135.393926 58.1680029,113 58.1680029,113 C58.1680029,113 86.6904891,126.609216 88,140.517612 Z" id="Path" fill="#F99746"></path>
                    <path d="M60.6415789,124 C55.8868691,124.456842 50,127.307535 50,127.307535 C53.1919354,133.136838 66.5589499,136.334731 74.6329855,137.887993 C82.0054771,139.306944 85.4136173,140.876653 88,141 C88,140.860206 88,140.795335 88,140.795335 C87.8663299,139.357197 87.4563483,137.921799 86.8274706,136.501021 C80.5180603,129.332258 60.6415789,124 60.6415789,124 Z" id="Path" fill="#E68635"></path>
                    <path d="M142.904593,18.8838482 L136.096817,28.7267144 L129.416132,38.3872567 C129.009087,38.8719931 128.537164,39.0402921 128.027026,38.9920815 C126.427287,38.8421901 124.440945,36.561387 122.894532,35.2982674 L122.738113,35.1720431 C120.698932,33.4986332 120.413021,30.5150122 122.098217,28.4944266 L132.308992,16.3242997 L132.308992,16.3242997 L135.336941,12.7146352 C137.033369,10.7029552 140.058868,10.420927 142.10739,12.0835136 L142.264697,12.2097379 C144.300196,13.8835844 144.585888,16.8633508 142.904593,18.8838482 Z" id="Path" fill="#FFB27D"></path>
                    <path d="M120.866855,29 C120.23843,29.8631822 119.936883,30.9013569 120.01102,31.9464893 L127.213535,38.9922171 C127.737255,39.0396021 128.217179,38.8741852 128.639622,38.3977499 L133,32.3608932 C128.435244,29.8081307 123.940743,29.1361244 120.866855,29 Z" id="Path" fill="#EFA26F"></path>
                    <path d="M77.2142513,22 C76.3090025,24.6902853 75.5873612,27.201471 75,29.5809379 C75,29.5809379 76.9840569,30.3390317 78.0144511,29.815947 C79.0448453,29.2928623 79.8788434,22.4131611 77.2142513,22 Z" id="Path" fill="#FFC197"></path>
                    <path d="M116.477756,0.159319651 C109.662184,-0.932918389 103.251625,3.70670452 102.159334,10.5222333 C101.067044,17.337762 105.706646,23.7483209 112.522202,24.8406529 C119.337758,25.9329849 125.748382,21.2934503 126.840766,14.4779367 C127.932667,7.66241047 123.293187,1.25202156 116.477756,0.159319651 Z M112.658569,23.9871676 C108.012492,23.241255 104.27324,19.7700525 103.184445,15.1922004 C102.09565,10.6143482 103.871736,5.83139273 107.684505,3.07365166 C111.497274,0.315910593 116.595851,0.126483878 120.602744,2.59370221 C124.609637,5.06092054 126.735741,9.69889854 125.989643,14.3449222 C125.500641,17.3914433 123.82135,20.1188997 121.321247,21.9272021 C118.821143,23.7355045 115.705052,24.476504 112.658569,23.9871676 L112.658569,23.9871676 Z" id="Shape" fill="#FFB93E"></path>
                    <polygon id="Rectangle" fill="#2A3D6B" transform="translate(112.351809, 22.719575) rotate(9.110000) translate(-112.351809, -22.719575) " points="108.910199 19.503666 115.793419 19.503666 115.793419 25.935484 108.910199 25.935484"></polygon>
                    <polygon id="Rectangle" fill="#2A3D6B" transform="translate(89.789878, 28.582757) rotate(-31.860000) translate(-89.789878, -28.582757) " points="88.258618 26.376147 91.3211381 26.376147 91.3211381 30.7893664 88.258618 30.7893664"></polygon>
                    <circle id="Oval" fill="#233D82" cx="107.5" cy="55.5" r="31.5"></circle>
                    <circle id="Oval" fill="#729FE3" transform="translate(107.006392, 56.080043) rotate(-45.000000) translate(-107.006392, -56.080043) " cx="107.006392" cy="56.0800433" r="27.4522407"></circle>
                    <circle id="Oval" fill="#C8DCFA" cx="107" cy="56" r="26"></circle>
                    <path d="M77.5600391,52.710774 C80.2848699,35.7967128 96.2744013,24.2831133 113.273909,26.9933757 C121.102382,28.2311711 128.159279,32.3994022 133,38.6447999 C128.18289,31.5398548 120.618985,26.7419249 112.112261,25.3953066 C95.1127536,22.6850442 79.1232223,34.1986437 76.3983915,51.1127049 C75.0238717,59.5749511 77.24024,68.2252824 82.5187401,75 C78.067815,68.4720334 76.2938009,60.4978883 77.5600391,52.710774 L77.5600391,52.710774 Z" id="Path" fill="#405A99"></path>
                    <path d="M129.544636,39 C133.668613,44.8613907 135.338616,52.1063435 134.197413,59.1850833 C131.793771,74.2021241 117.693222,84.4239108 102.697233,82.0174916 C95.624859,80.8929849 89.2727678,77.0410299 85,71.2857585 C89.2623025,77.3797402 95.8115712,81.4803303 103.148465,82.64877 C118.142698,85.0560685 132.245002,74.8334026 134.648644,59.817241 C135.834043,52.4721728 133.99214,44.959778 129.544636,39 Z" id="Path" fill="#405A99"></path>
                    <path d="M107.317132,54.0253919 C106.51848,53.8970918 105.721182,54.2625212 105.297018,54.9512808 C104.872853,55.6400403 104.905355,56.5164902 105.379367,57.1719425 C105.853379,57.8273948 106.675553,58.1327691 107.462509,57.9456695 C108.249465,57.7585699 108.846226,57.1158426 108.974523,56.3171909 C109.149173,55.2267811 108.407382,54.2010505 107.317132,54.0253919 L107.317132,54.0253919 Z M106.791371,57.3033367 C106.071879,57.1878654 105.582212,56.5110097 105.697653,55.7915137 C105.813093,55.0720177 106.489929,54.5823225 107.209431,54.6977319 C107.928933,54.8131412 108.418658,55.4899548 108.303279,56.2094607 C108.18699,56.9283065 107.510337,57.4170457 106.791371,57.3014952 L106.791371,57.3033367 Z" id="Shape" fill="#C65447"></path>
                    <path d="M106,55.2283814 L86.0096788,52 L86,52.067997 L105.885614,56 C105.876459,55.8684085 105.881482,55.7360613 105.900572,55.6058142 C105.920264,55.4760404 105.95364,55.3493432 106,55.2283814 L106,55.2283814 Z" id="Path" fill="#C65447"></path>
                    <path d="M116,56.5429655 L108.131878,55 C108.146207,55.1902571 108.142462,55.3822333 108.120734,55.5711879 C108.098437,55.7604455 108.057841,55.9448587 108,56.1196293 L115.828187,58 L116,56.5429655 Z" id="Path" fill="#C65447"></path>
                    <circle id="Oval" fill="#6EA7FB" transform="translate(102.460687, 44.178778) rotate(-45.000000) translate(-102.460687, -44.178778) " cx="102.460687" cy="44.1787781" r="5.93571436"></circle>
                    <path d="M102.993361,44.5810545 C103.026226,44.381108 102.935154,44.1810975 102.762758,44.074609 C102.590362,43.9681205 102.370737,43.9762147 102.206648,44.0951044 C102.042559,44.2139941 101.966457,44.4201658 102.013952,44.6171506 C102.061447,44.8141354 102.223144,44.9629747 102.423386,44.9940256 C102.694508,45.0360679 102.948862,44.8517773 102.993361,44.5810545 L102.993361,44.5810545 Z M102.177396,44.4510636 C102.19809,44.319543 102.296019,44.2134618 102.425471,44.1823355 C102.554923,44.1512092 102.690374,44.2011754 102.7686,44.3089113 C102.846825,44.4166472 102.8524,44.5609094 102.782722,44.6743605 C102.713044,44.7878115 102.581853,44.8480812 102.450385,44.8270373 C102.271313,44.7983737 102.149209,44.6302064 102.177396,44.4510636 L102.177396,44.4510636 Z" id="Shape" fill="#C65447"></path>
                    <path d="M102,43.8075269 L97,43 L97,43.0172043 L101.975998,44 C101.972174,43.9675241 101.972174,43.9346264 101.975998,43.9021505 C101.980806,43.8697013 101.988858,43.8379606 102,43.8075269 L102,43.8075269 Z" id="Path" fill="#C65447"></path>
                    <path d="M104,44.5175601 L102.033418,44 C102.040228,44.1264453 102.028703,44.2539364 102,44.3696858 L103.957468,45 L104,44.5175601 Z" id="Path" fill="#C65447"></path>
                    <circle id="Oval" fill="#6EA7FB" transform="translate(115.044084, 46.195473) rotate(-45.000000) translate(-115.044084, -46.195473) " cx="115.044084" cy="46.1954728" r="5.93571436"></circle>
                    <path d="M114.993361,46.5810545 C115.026226,46.381108 114.935154,46.1810975 114.762758,46.074609 C114.590362,45.9681205 114.370737,45.9762147 114.206648,46.0951044 C114.042559,46.2139941 113.966457,46.4201658 114.013952,46.6171506 C114.061447,46.8141354 114.223144,46.9629747 114.423386,46.9940256 C114.694508,47.0360679 114.948862,46.8517773 114.993361,46.5810545 L114.993361,46.5810545 Z M114.177396,46.4510636 C114.19809,46.319543 114.296019,46.2134618 114.425471,46.1823355 C114.554923,46.1512092 114.690374,46.2011754 114.7686,46.3089113 C114.846825,46.4166472 114.8524,46.5609094 114.782722,46.6743605 C114.713044,46.7878115 114.581853,46.8480812 114.450385,46.8270373 C114.271623,46.7978698 114.149785,46.6300676 114.177396,46.4510636 L114.177396,46.4510636 Z" id="Shape" fill="#233D82"></path>
                    <path d="M115.196563,46 L116,41 L115.982814,41 L115,45.9826923 C115.032834,45.9793571 115.065984,45.9793571 115.098818,45.9826923 C115.13208,45.9847781 115.164919,45.9905928 115.196563,46 Z" id="Path" fill="#233D82"></path>
                    <path d="M114.485294,49 L115,47.0294118 C114.939017,47.0340776 114.877159,47.0340776 114.816176,47.0294118 C114.752706,47.0244108 114.690825,47.01451 114.632353,47 L114,48.9543611 L114.485294,49 Z" id="Path" fill="#233D82"></path>
                    <polygon id="Rectangle" fill="#2A3D6B" transform="translate(110.860049, 32.019264) rotate(9.110000) translate(-110.860049, -32.019264) " points="109.639072 30.7982879 112.081025 30.7982879 112.081025 33.2402401 109.639072 33.2402401"></polygon>
                    <polygon id="Rectangle" fill="#2A3D6B" transform="translate(103.142251, 80.154165) rotate(9.110000) translate(-103.142251, -80.154165) " points="101.921274 78.9331891 104.363227 78.9331891 104.363227 81.3751413 101.921274 81.3751413"></polygon>
                    <polygon id="Rectangle" fill="#2A3D6B" transform="translate(82.943640, 52.226254) rotate(-80.890000) translate(-82.943640, -52.226254) " points="81.7226641 51.0052782 84.1646163 51.0052782 84.1646163 53.4472304 81.7226641 53.4472304"></polygon>
                    <polygon id="Rectangle" fill="#2A3D6B" transform="translate(131.082496, 59.943340) rotate(-80.890000) translate(-131.082496, -59.943340) " points="129.86152 58.7223639 132.303472 58.7223639 132.303472 61.164316 129.86152 61.164316"></polygon>
                    <polygon id="Rectangle" fill="#2A3D6B" transform="translate(98.313496, 33.315307) rotate(-20.890000) translate(-98.313496, -33.315307) " points="97.0925202 32.0943304 99.5344724 32.0943304 99.5344724 34.5362826 97.0925202 34.5362826"></polygon>
                    <polygon id="Rectangle" fill="#2A3D6B" transform="translate(115.696814, 78.863366) rotate(-20.890000) translate(-115.696814, -78.863366) " points="114.475838 77.6423894 116.91779 77.6423894 116.91779 80.0843416 114.475838 80.0843416"></polygon>
                    <polygon id="Rectangle" fill="#2A3D6B" transform="translate(84.241576, 64.775906) rotate(-110.890000) translate(-84.241576, -64.775906) " points="83.0206002 63.5549298 85.4625523 63.5549298 85.4625523 65.996882 83.0206002 65.996882"></polygon>
                    <polygon id="Rectangle" fill="#2A3D6B" transform="translate(129.789803, 47.385677) rotate(-110.890000) translate(-129.789803, -47.385677) " points="128.568827 46.1647007 131.010779 46.1647007 131.010779 48.6066529 128.568827 48.6066529"></polygon>
                    <polygon id="Rectangle" fill="#2A3D6B" transform="translate(88.099464, 40.689383) rotate(-50.860000) translate(-88.099464, -40.689383) " points="86.8784879 39.4684074 89.3204401 39.4684074 89.3204401 41.9103596 86.8784879 41.9103596"></polygon>
                    <polygon id="Rectangle" fill="#2A3D6B" transform="translate(125.909388, 71.460922) rotate(-50.860000) translate(-125.909388, -71.460922) " points="124.688411 70.2399464 127.130364 70.2399464 127.130364 72.6818986 124.688411 72.6818986"></polygon>
                    <polygon id="Rectangle" fill="#2A3D6B" transform="translate(91.614395, 74.985595) rotate(-140.860000) translate(-91.614395, -74.985595) " points="90.3934188 73.7646188 92.835371 73.7646188 92.835371 76.2065709 90.3934188 76.2065709"></polygon>
                    <polygon id="Rectangle" fill="#2A3D6B" transform="translate(122.389171, 37.177644) rotate(-140.860000) translate(-122.389171, -37.177644) " points="121.168195 35.9566676 123.610147 35.9566676 123.610147 38.3986198 121.168195 38.3986198"></polygon>
                    <path d="M109.626714,15.5852069 L116.936502,15.5852069 C118.717654,15.5852069 120.161563,17.0291161 120.161563,18.8102683 C120.161563,20.5914205 118.717654,22.0353296 116.936502,22.0353296 L109.626714,22.0353296 C107.845562,22.0353296 106.401653,20.5914205 106.401653,18.8102683 C106.401653,17.0291161 107.845562,15.5852069 109.626714,15.5852069 Z" id="Rectangle" fill="#2B478B" transform="translate(113.281608, 18.810268) rotate(9.180542) translate(-113.281608, -18.810268) "></path>
                    <path d="M87.2053191,24.3691565 L89.9356425,24.3691565 C91.1543194,24.3691565 92.1422522,25.3570893 92.1422522,26.5757662 C92.1422522,27.7944431 91.1543194,28.7823759 89.9356425,28.7823759 L87.2053191,28.7823759 C85.9866422,28.7823759 84.9987094,27.7944431 84.9987094,26.5757662 C84.9987094,25.3570893 85.9866422,24.3691565 87.2053191,24.3691565 Z" id="Rectangle" fill="#2B478B" transform="translate(88.570481, 26.575766) rotate(-31.860000) translate(-88.570481, -26.575766) "></path>
                    <path d="M81.317194,26.632469 C82.1892357,26.4281746 83.3887692,25.4466328 83.5639392,26.4309604 C83.7391091,27.4152881 84.1875061,31.5661793 83.9133271,33.9406376 C83.5039625,34.5386631 79,30.4212019 79,30.4212019 L81.317194,26.632469 Z" id="Path" fill="#FFB27D"></path>
                    <path d="M142.869456,54.598612 L141.809356,54.9985522 L134.678279,57.6884723 C134.51312,57.7510434 134.344521,57.8042698 134.173292,57.8478954 C131.77903,58.4569424 129.304823,57.1892355 128.417932,54.8990279 L128.313964,54.6225716 C127.369579,52.1338436 128.62706,49.3551788 131.128521,48.4032257 L137.775962,45.8957668 L138.25867,45.7114625 L139.319698,45.3115224 C141.8267,44.3741742 144.625588,45.6230157 145.583758,48.1064959 L145.687726,48.3829522 C146.629283,50.8716496 145.370387,53.6481282 142.869456,54.598612 L142.869456,54.598612 Z" id="Path" fill="#FFB27D"></path>
                    <path d="M136.799325,54.6313713 C135.667406,55.0650313 133.620769,55.8341979 132.522402,55.9930281 C132.212493,56.0385357 131.63947,55.8681055 131.10971,55.2791844 C130.790089,54.9222626 130.483712,54.4216797 130.256798,53.7238974 C130.146,53.4020519 130.068189,53.0695614 130.024587,52.7316547 C129.982002,52.3383114 129.994784,51.9408541 130.062553,51.5511356 C130.132801,51.1822343 130.373332,50.8695075 130.709742,50.7096923 C130.709742,50.7096923 130.709742,50.7096923 130.709742,50.7096923 C131.875213,50.1475404 133.446832,49.4604658 134.823323,49.0794517 C135.775123,48.8117603 136.738402,49.2391743 137.039482,50.0806176 L137.182517,50.4741239 L137.910053,52.4889478 C138.213782,53.3223603 137.724637,54.2789109 136.799325,54.6313713 Z" id="Path" fill="#FFD3B6"></path>
                    <path d="M137.68518,54.6023816 C136.445653,55.0452273 134.204449,55.830686 133.001663,55.9928805 C132.662292,56.0393519 132.034793,55.8653118 131.454672,55.2639165 C131.391825,55.1263245 131.33478,54.9823541 131.280635,54.8274493 C131.159718,54.4987302 131.074835,54.159206 131.027315,53.8141893 C130.980336,53.4125584 130.994009,53.006679 131.067924,52.6086651 C131.145155,52.2318598 131.408408,51.9123452 131.776639,51.7484875 L131.776639,51.7484875 C133.052907,51.1735172 134.773935,50.4728005 136.281285,50.083716 C136.901665,49.9095851 137.572372,50.0101301 138.104802,50.3570775 L138.901502,52.4145784 C139.234105,53.2656439 138.69846,54.2424557 137.68518,54.6023816 Z" id="Path" fill="#FFC197"></path>
                    <path d="M141.672495,62.4718993 L136.157411,63.8956999 C134.474829,64.3259534 132.741837,63.3861609 132.280184,61.7931004 L132.109787,61.2008065 C131.656522,59.6060195 132.647745,57.9637658 134.327739,57.5261123 L139.843756,56.1040772 C141.526036,55.6743858 143.258387,56.6140563 143.720051,58.2066766 L143.890448,58.7980879 C144.34312,60.3925895 143.352026,62.0342357 141.672495,62.4718993 L141.672495,62.4718993 Z" id="Path" fill="#FFB27D"></path>
                    <path d="M138.809089,62.2594023 C137.778863,62.509721 135.916313,62.9475638 134.94006,62.9991759 C134.584973,63.0172401 133.873853,62.7411153 133.409872,61.8963971 C133.285987,61.6670499 133.190706,61.4258432 133.125803,61.1772683 C133.053122,60.9329059 133.011191,60.6818422 133.000812,60.4288927 C132.993497,60.1340664 133.035644,59.8399471 133.125803,59.5566479 C133.222212,59.2813228 133.458169,59.06473 133.760225,58.9742913 C133.760225,58.9742913 133.760225,58.9742913 133.760225,58.9742913 C134.829273,58.6302105 136.264772,58.2224748 137.507103,58.0280692 C138.364993,57.8912971 139.178379,58.2654849 139.379122,58.9080557 L139.523997,59.3674035 L139.955783,60.7437265 C140.157472,61.3794157 139.650882,62.0563946 138.809089,62.2594023 Z" id="Path" fill="#FFD3B6"></path>
                    <path d="M138.755425,62.3005507 C137.679835,62.5369615 135.735271,62.9504772 134.716031,62.9992217 C134.345308,63.0162822 133.602874,62.7554992 133.118464,61.9577145 C133.04949,61.7404506 133.010035,61.517573 133.000821,61.2931647 C132.993315,61.0149922 133.037316,60.7374985 133.131315,60.4701954 C133.232195,60.210564 133.477969,60.0061761 133.792684,59.9201951 C133.792684,59.9201951 133.792684,59.9201951 133.798616,59.9201951 C134.914738,59.5952319 136.413446,59.2093381 137.710481,59.0265463 C138.451926,58.9193084 139.161737,59.1443454 139.50379,59.5684224 L139.954589,60.8682753 C140.163182,61.4694573 139.634284,62.1088224 138.755425,62.3005507 Z" id="Path" fill="#FFC197"></path>
                    <path d="M141.29398,45.0857082 C141.257401,45.0992837 141.220822,45.1111623 141.182501,45.1230409 L134.418854,46.8148915 C131.444626,47.5590003 128.36937,45.9918749 127.584662,43.3310708 L127.184905,41.9684268 C126.429808,39.41453 128.055835,36.7435442 130.814943,35.8772556 L133.048009,35.3181134 L137.576848,34.185405 C140.550205,33.4404478 143.626332,35.0084216 144.41104,37.6692258 L144.81341,39.0318697 C145.56154,41.5518277 143.993865,44.1829354 141.29398,45.0857082 Z" id="Path" fill="#FFB27D"></path>
                    <path d="M137.952655,42.4952398 L134.350491,43.8973203 L134.327577,43.9022689 C134.184191,43.9348982 134.038859,43.9607786 133.892224,43.9797957 C133.832077,43.9872185 133.77002,43.9929917 133.709873,43.998765 C133.684449,44.0004117 133.658918,44.0004117 133.633495,43.998765 C133.443105,43.9918761 133.269145,43.903651 133.169392,43.763392 C133.069639,43.623133 133.057155,43.4492047 133.136085,43.2993742 C133.489362,42.6387944 133.561706,41.8917609 133.340395,41.1896554 L133.25447,40.9183116 C133.254891,40.9155744 133.254891,40.9128012 133.25447,40.910064 L132.975692,40.0267533 C132.762596,39.3483485 132.305184,38.7461008 131.669633,38.3071428 C131.596119,38.2551833 131.519741,38.2065229 131.442409,38.1595119 C130.730187,37.7339393 130.911584,36.7689779 131.745056,36.5685629 L131.767969,36.5627896 L135.720516,36.0464941 C136.698151,35.8172127 137.639507,36.4671183 137.905874,37.3108408 L138.223796,38.3170398 L138.899739,40.4613983 C139.162288,41.3100694 138.93029,42.2659584 137.952655,42.4952398 Z" id="Path" fill="#FFD3B6"></path>
                    <path d="M137.999857,43.1781128 L134.560036,44.8752132 L134.538156,44.881203 C134.457927,44.8971757 134.205387,44.9440955 133.875354,45 C133.693545,44.9916616 133.527425,44.8848725 133.432168,44.7151008 C133.33691,44.545329 133.324989,44.3348035 133.400362,44.1534464 C133.737717,43.3538702 133.806801,42.449649 133.595464,41.5998094 L133.513412,41.2713706 C133.513813,41.2680574 133.513813,41.2647007 133.513412,41.2613876 L133.247197,40.1922143 C133.043706,39.3710625 132.606908,38.6420923 132,38.1107706 C132.128996,37.9040635 132.320965,37.7543729 132.541546,37.6884921 L132.563427,37.681504 L136.338751,37.0565717 C137.124631,36.8219726 137.888631,37.3440805 138.258778,38.1227501 L138.904258,40.7183155 C139.154973,41.7435638 138.933432,42.900587 137.999857,43.1781128 Z" id="Path" fill="#FFC197"></path>
                    <path d="M42.7073349,128.031498 C42.7073349,128.031498 40.1937564,121.030424 36.0186747,118.027939 C36.0186747,118.027939 34.0760475,132.27025 31.4928408,131.737637 C28.9096341,131.205023 34.7810332,116.026872 34.7810332,116.026872 C34.7810332,116.026872 24.5317602,105.858477 19.582935,104.689564 C19.582935,104.689564 22.8519796,120.363107 20.4793982,119.201283 C18.1068168,118.039459 13.956105,101.893565 13.956105,101.893565 C13.956105,101.893565 5.30915126,96.9963581 0,99.9438989 L0,116.375153 C4.06019518,118.011987 10.3389193,120.407418 9.73054279,121.485937 C9.12216628,122.564457 4.17769279,122.726634 0,121.574559 L0,133.019099 C0.949554757,134.252706 2.11843839,135.170821 3.55626099,135.512899 C10.2649393,137.108081 13.627982,133.695279 17.7560647,134.75696 C21.8841474,135.818642 24.4577802,137.926054 22.0851989,138.340801 C19.7126175,138.755548 13.1423252,135.684824 8.96463245,137.387237 C4.78693966,139.08965 1.5831715,139.922689 7.20390901,143.247756 C12.8246465,146.572823 23.9146802,149.489347 27.643271,145.50228 L27.643271,145.50228 L28.1089097,145.003342 L28.1089097,145.003342 C27.9751299,145.191293 27.8173707,145.360271 27.6397896,145.505824 C28.5353825,146.548896 29.1646475,150.275417 29.5258438,153.091798 C29.5545654,153.558832 29.6276751,154.216401 29.7599687,155.115906 C29.8034863,155.534198 29.8356894,155.873617 29.8574482,156.104919 C29.9549277,157.925198 29.6555264,159.991844 29.1837952,162 L30.9741106,162 C31.5441916,157.480319 30.6703576,154.096762 30.6668762,154.082583 L30.6668762,154.082583 C29.4440307,146.825394 31.3631583,141.52053 31.3631583,141.52053 L31.3631583,141.52053 C31.4014538,141.507236 45.1591184,138.853918 42.7073349,128.031498 Z" id="Path" fill="#FCECDB"></path>
                    <path d="M158.25451,115.512099 C155.891092,106.636789 141.16049,109.410268 141.16049,109.410268 C141.16049,109.410268 131.158465,124.941395 128.248437,125.311901 C125.338408,125.682407 134.249826,110.332102 134.249826,110.332102 C128.611972,109.777229 114.245777,116.802666 114.245777,116.802666 C114.245777,116.802666 115.155052,134.922905 112.240664,134.553285 C109.326277,134.183665 112.240664,118.466399 112.240664,118.466399 C106.785015,120.131018 101.692029,126.602468 101.692029,126.602468 C95.3279758,137.141511 108.966228,144.907074 108.966228,144.907074 C108.966228,144.907074 109.148432,151.194158 105.33,158.404848 L105.33,158.404848 C105.33,158.404848 104.468674,159.734416 103.592527,162 L105.079797,162 C105.201266,161.594039 105.335812,161.202555 105.483435,160.825548 C105.482611,160.823565 105.482611,160.821327 105.483435,160.819344 C105.485387,160.813578 105.487717,160.807951 105.490409,160.802502 C105.591537,160.569385 105.737997,160.236993 105.921073,159.827486 L105.921073,159.827486 C106.375274,158.922493 106.682144,158.254164 106.880039,157.771974 C108.241772,154.935562 110.203296,151.234045 111.511849,150.457577 C111.376201,150.241795 111.269207,150.008726 111.193647,149.764429 L111.511849,150.457577 C114.057471,156.004535 126.78732,156.928141 133.880187,155.450548 C140.973055,153.972955 137.880823,151.936943 134.061519,148.636069 C130.242216,145.335195 122.240945,146.205619 119.877528,144.913279 C117.51411,143.620939 120.968134,142.325053 125.696713,142.697332 C130.425291,143.069611 132.788709,147.87467 140.429931,148.61391 C148.071153,149.353149 153.886852,134.746515 153.886852,134.746515 C148.613406,136.411135 139.153633,133.452403 138.792713,131.603417 C138.431793,129.754431 152.431837,129.939684 154.613923,129.38747 C156.796008,128.835256 160.618799,124.387408 158.25451,115.512099 Z" id="Path" fill="#FCECDB"></path>
                    <path d="M62.3515054,102.191506 C58.8829174,100.910056 59.616001,106.248698 57.4272476,112.557442 C55.2384942,118.866186 47.4081456,124.342911 50.8714849,128.016635 C58.3580364,133.891779 75.766587,134.788882 87.9263283,141 C91.837566,139.608611 91.8996769,130.813485 91.837566,124.480994 C91.7754551,118.148503 97.0820012,115.379798 94.0788075,113.334051 C80.3706675,113.334051 64.9444172,105.412281 62.3515054,102.191506 Z" id="Path" fill="#F99746"></path>
                    <path d="M83.403192,87.1931314 C83.9811299,70.7654629 80.368797,64.6271793 79.8737997,56.5729351 C79.7326241,54.2674517 84.1796582,41.2153556 83.9943651,32.6915737 C82.6020199,28.4217692 73.2817774,45.0446387 71.7261978,51.8643677 C70.1706182,58.6840967 65.9027007,76.8096632 72.8520739,83.6645635 C79.8014472,90.5194639 83.403192,87.1931314 83.403192,87.1931314 Z" id="Path" fill="#FFB27D"></path>
                </g>
            </g>
        </g>
    </g>
</svg>